<svg id="svg" xmlns="http://www.w3.org/2000/svg" xmlns:xlink="http://www.w3.org/1999/xlink" width="400" height="26.12035851472471" viewBox="0, 0, 400,26.12035851472471"><g id="svgg"><path id="path0" d="M119.334 0.817 C 112.801 3.646,113.922 10.163,121.864 15.522 C 123.486 16.617,123.651 16.519,116.514 18.697 C 94.143 25.527,81.071 25.509,70.823 18.638 C 65.985 15.393,64.610 16.129,68.758 19.742 C 77.714 27.543,95.128 28.105,122.342 21.469 L 128.960 19.855 132.982 21.159 C 147.512 25.869,175.353 23.978,193.428 17.053 C 193.756 16.927,194.408 17.630,194.876 18.616 C 197.050 23.198,205.890 22.432,205.890 17.662 C 205.890 16.689,206.179 16.704,209.523 17.852 C 228.136 24.243,253.188 25.704,266.836 21.193 L 271.015 19.812 279.041 21.687 C 306.611 28.128,322.180 27.543,331.242 19.724 C 334.716 16.727,333.987 15.066,330.444 17.904 C 321.272 25.249,307.137 25.639,285.164 19.152 L 277.114 16.775 280.424 13.577 C 285.601 8.576,286.520 5.296,283.491 2.637 C 279.183 -1.146,271.569 -0.182,273.434 3.911 C 273.972 5.091,274.237 5.195,275.942 4.896 C 280.954 4.018,282.000 4.005,282.673 4.815 C 284.098 6.532,282.094 9.730,277.175 13.591 L 274.426 15.748 269.628 14.307 C 244.897 6.882,221.954 6.040,207.614 12.031 C 205.823 12.780,205.659 12.765,204.597 11.768 C 202.111 9.433,198.389 9.454,195.866 11.818 C 194.815 12.802,194.775 12.801,191.768 11.749 C 175.130 5.928,153.526 6.971,128.812 14.789 L 125.741 15.760 123.497 14.154 C 118.745 10.753,115.933 6.496,117.327 4.815 C 117.999 4.006,119.068 4.019,124.027 4.893 C 125.616 5.173,125.993 5.053,126.499 4.108 C 128.065 1.181,123.420 -0.953,119.334 0.817 M79.804 8.944 C 72.311 10.015,65.098 11.544,50.627 15.129 C 24.693 21.554,7.948 21.442,4.181 14.820 C 3.249 13.182,1.554 12.829,0.533 14.060 C -0.631 15.462,0.251 16.421,4.353 18.209 C 18.093 24.200,31.093 23.768,57.106 16.459 C 85.373 8.517,106.223 8.439,114.848 16.245 C 115.347 16.696,115.927 16.893,116.136 16.682 C 117.152 15.658,109.627 11.354,103.966 9.721 C 98.997 8.287,87.077 7.904,79.804 8.944 M299.104 8.971 C 292.186 10.385,282.486 15.292,283.864 16.682 C 284.073 16.893,284.653 16.696,285.152 16.245 C 293.076 9.074,313.510 8.533,337.273 14.866 C 341.491 15.990,347.939 17.697,351.601 18.659 C 368.849 23.190,383.845 23.245,394.110 18.812 C 396.364 17.839,398.611 16.903,399.104 16.732 C 400.218 16.346,400.267 14.680,399.195 13.609 C 397.952 12.366,397.241 12.638,395.799 14.907 C 391.595 21.525,374.852 21.502,348.271 14.840 C 322.996 8.506,309.351 6.877,299.104 8.971 M181.562 11.285 C 185.708 11.875,193.674 13.763,194.240 14.291 C 194.786 14.801,172.443 20.269,165.685 21.280 C 154.680 22.926,140.483 22.110,133.931 19.457 C 132.427 18.848,132.504 18.802,137.516 17.333 C 158.463 11.193,169.882 9.625,181.562 11.285 M238.810 11.516 C 244.428 12.363,246.549 12.865,258.784 16.244 C 268.254 18.859,268.325 18.937,262.563 20.439 C 250.502 23.582,238.044 22.831,217.701 17.735 C 212.754 16.496,208.073 15.336,207.298 15.157 C 205.070 14.645,205.626 14.094,209.347 13.130 C 218.572 10.739,229.633 10.133,238.810 11.516 " stroke="none" fill="#000000" fill-rule="evenodd"></path></g></svg>