<svg xmlns="http://www.w3.org/2000/svg"
     width="2.45556in" height="3.03333in"
     viewBox="0 0 221 273">
  <path id="Selection"
        fill="#efefef" stroke="#efefef" stroke-width="1"
        d="M 160.00,0.00
           C 160.16,18.22 168.51,33.88 185.00,42.24
             190.03,44.80 192.34,46.11 198.00,47.00
             194.03,55.14 180.74,74.75 172.00,77.06
             167.28,78.31 160.84,74.98 157.00,72.40
             145.04,64.36 139.88,53.91 138.00,40.00
             138.00,40.00 127.00,40.00 127.00,40.00
             130.24,64.41 137.52,78.45 162.00,87.00
             162.00,87.00 131.00,98.76 131.00,98.76
             104.63,104.98 81.14,99.17 58.00,86.00
             72.20,79.88 83.21,72.39 88.25,57.00
             90.03,51.57 90.25,45.65 91.00,40.00
             91.00,40.00 81.00,40.00 81.00,40.00
             77.84,56.78 69.60,71.10 52.00,76.13
             50.33,76.41 48.73,76.81 47.00,76.13
             42.75,75.09 32.06,62.93 29.16,59.00
             27.76,57.11 24.20,52.45 24.30,50.14
             24.41,47.37 27.93,46.70 30.00,45.92
             35.18,43.95 39.80,41.36 43.99,37.70
             55.09,28.00 59.00,15.24 59.00,1.00
             56.44,1.00 51.78,0.51 49.98,2.60
             49.98,2.60 45.68,15.00 45.68,15.00
             41.76,23.42 36.07,29.56 28.00,34.12
             25.32,35.64 21.35,37.72 18.34,35.96
             15.66,34.40 14.24,29.82 13.35,27.00
             13.35,27.00 11.00,17.00 11.00,17.00
             11.00,17.00 9.00,1.00 9.00,1.00
             9.00,1.00 0.00,1.00 0.00,1.00
             0.00,18.88 1.31,31.53 9.26,48.00
             17.15,64.36 24.17,73.81 38.00,85.84
             84.71,126.49 157.67,118.41 196.54,71.00
             212.60,51.40 220.45,26.09 221.00,1.00
             221.00,1.00 211.00,1.00 211.00,1.00
             211.00,1.00 207.10,25.00 207.10,25.00
             206.36,27.94 205.04,32.46 202.61,34.40
             198.71,37.51 192.49,33.71 189.00,31.45
             177.96,24.31 171.29,13.16 171.00,0.00
             171.00,0.00 160.00,0.00 160.00,0.00 Z
           M 38.00,126.00
           C 44.17,141.88 57.97,144.79 73.00,141.00
             73.00,141.00 62.75,194.00 62.75,194.00
             62.75,194.00 58.01,220.00 58.01,220.00
             57.70,233.03 62.54,234.18 72.00,242.27
             72.00,242.27 94.00,261.00 94.00,261.00
             97.06,263.64 106.21,272.46 110.00,272.13
             113.16,271.86 121.24,264.38 124.00,262.08
             131.89,255.49 155.83,236.26 160.40,229.00
             163.38,224.28 160.10,211.73 159.27,206.00
             159.27,206.00 151.80,165.00 151.80,165.00
             151.80,165.00 147.00,141.00 147.00,141.00
             161.28,144.47 176.38,141.82 181.00,126.00
             181.00,126.00 156.00,130.90 156.00,130.90
             156.00,130.90 145.00,126.55 145.00,126.55
             145.00,126.55 132.00,125.00 132.00,125.00
             132.61,129.51 135.22,138.11 133.09,141.96
             131.09,145.57 125.55,147.98 122.00,150.00
             125.05,156.08 128.78,156.75 135.00,155.00
             135.00,155.00 125.34,186.00 125.34,186.00
             124.20,189.59 122.35,197.05 120.73,199.98
             117.31,206.18 108.95,207.89 103.04,204.15
             97.95,200.92 96.96,194.39 95.42,189.00
             95.42,189.00 85.00,155.00 85.00,155.00
             91.99,156.63 95.19,155.24 97.00,148.00
             83.13,144.70 85.51,136.32 87.00,125.00
             87.00,125.00 76.00,126.22 76.00,126.22
             76.00,126.22 63.00,131.79 63.00,131.79
             63.00,131.79 51.00,127.55 51.00,127.55
             51.00,127.55 38.00,126.00 38.00,126.00 Z
           M 80.00,175.00
           C 80.00,175.00 86.85,201.00 86.85,201.00
             87.62,203.85 89.69,212.71 91.14,214.69
             92.88,217.08 95.32,216.95 98.00,217.00
             98.00,217.00 116.00,217.00 116.00,217.00
             120.68,216.94 124.29,216.68 127.58,212.87
             130.91,209.02 135.05,191.91 137.00,186.00
             138.23,182.26 138.81,178.44 142.00,176.00
             142.00,176.00 148.25,210.00 148.25,210.00
             148.97,214.15 150.90,220.12 148.98,224.00
             147.29,227.40 141.02,232.83 138.00,235.42
             138.00,235.42 121.00,250.13 121.00,250.13
             118.17,252.55 113.95,256.58 110.00,256.55
             106.34,256.53 101.76,252.43 99.00,250.20
             99.00,250.20 79.00,232.91 79.00,232.91
             76.35,230.44 72.01,226.36 70.74,223.00
             69.22,218.97 71.19,212.28 71.92,208.00
             71.92,208.00 78.00,175.00 78.00,175.00
             78.00,175.00 80.00,175.00 80.00,175.00 Z" />
</svg>
